<svg xmlns="http://www.w3.org/2000/svg" viewBox="0 0 760 490" font-family="Arial, Helvetica, sans-serif">
  <rect width="760" height="490" fill="#FAF8F3"/>

  <!-- Title -->
  <text x="380" y="34" text-anchor="middle" font-size="13" font-weight="bold" fill="#2D5016" letter-spacing="2.5">WHO HAS THE OIL VS. WHO PUMPS IT</text>
  <text x="380" y="54" text-anchor="middle" font-size="11" fill="#999999">The countries sitting on the most oil are mostly not the ones producing it</text>
  <line x1="230" y1="64" x2="530" y2="64" stroke="#E0DDD5" stroke-width="0.8"/>

  <!-- ===== LEFT CARD: PROVEN RESERVES ===== -->
  <rect x="24" y="80" width="344" height="382" rx="8" fill="#FFFFFF" stroke="#E0DDD5" stroke-width="1"/>
  <path d="M32 80 H360 A8 8 0 0 1 368 88 V114 H24 V88 A8 8 0 0 1 32 80 Z" fill="#2D5016"/>
  <text x="196" y="102" text-anchor="middle" font-size="14" font-weight="bold" fill="#FFFFFF" letter-spacing="1">PROVEN RESERVES</text>
  <text x="196" y="134" text-anchor="middle" font-size="10" fill="#999999" letter-spacing="1">BILLION BARRELS IN THE GROUND</text>
  <line x1="128" y1="146" x2="128" y2="442" stroke="#E0DDD5" stroke-width="1"/>

  <!-- Venezuela 303 -->
  <text x="36" y="166" font-size="11" font-weight="bold" fill="#2D5016">Venezuela</text>
  <rect x="128" y="156" width="220" height="13" fill="#2D5016" rx="2"/>
  <text x="342" y="166" text-anchor="end" font-size="10" font-weight="bold" fill="#FFFFFF">303</text>
  <!-- Saudi Arabia 267 -->
  <text x="36" y="198" font-size="11" fill="#333333">Saudi Arabia</text>
  <rect x="128" y="188" width="194" height="13" fill="#999999" rx="2"/>
  <text x="327" y="198" font-size="10" fill="#333333">267</text>
  <!-- Iran 209 -->
  <text x="36" y="230" font-size="11" fill="#333333">Iran</text>
  <rect x="128" y="220" width="152" height="13" fill="#999999" rx="2"/>
  <text x="285" y="230" font-size="10" fill="#333333">209</text>
  <!-- Canada 163 -->
  <text x="36" y="262" font-size="11" fill="#333333">Canada</text>
  <rect x="128" y="252" width="118" height="13" fill="#999999" rx="2"/>
  <text x="251" y="262" font-size="10" fill="#333333">163</text>
  <!-- Iraq 145 -->
  <text x="36" y="294" font-size="11" fill="#333333">Iraq</text>
  <rect x="128" y="284" width="105" height="13" fill="#999999" rx="2"/>
  <text x="238" y="294" font-size="10" fill="#333333">145</text>
  <!-- UAE 113 -->
  <text x="36" y="326" font-size="11" fill="#333333">UAE</text>
  <rect x="128" y="316" width="82" height="13" fill="#999999" rx="2"/>
  <text x="215" y="326" font-size="10" fill="#333333">113</text>
  <!-- Kuwait 102 -->
  <text x="36" y="358" font-size="11" fill="#333333">Kuwait</text>
  <rect x="128" y="348" width="74" height="13" fill="#999999" rx="2"/>
  <text x="207" y="358" font-size="10" fill="#333333">102</text>
  <!-- Russia 80 -->
  <text x="36" y="390" font-size="11" fill="#333333">Russia</text>
  <rect x="128" y="380" width="58" height="13" fill="#999999" rx="2"/>
  <text x="191" y="390" font-size="10" fill="#333333">80</text>
  <!-- United States ~46-84 -->
  <text x="36" y="422" font-size="11" font-weight="bold" fill="#2D5016">United States</text>
  <rect x="128" y="412" width="47" height="13" fill="#2D5016" rx="2"/>
  <text x="180" y="422" font-size="10" font-weight="bold" fill="#2D5016">~46-84</text>

  <!-- ===== RIGHT CARD: DAILY PRODUCTION ===== -->
  <rect x="392" y="80" width="344" height="382" rx="8" fill="#FFFFFF" stroke="#E0DDD5" stroke-width="1"/>
  <path d="M400 80 H728 A8 8 0 0 1 736 88 V114 H392 V88 A8 8 0 0 1 400 80 Z" fill="#2D5016"/>
  <text x="564" y="102" text-anchor="middle" font-size="14" font-weight="bold" fill="#FFFFFF" letter-spacing="1">DAILY PRODUCTION</text>
  <text x="564" y="134" text-anchor="middle" font-size="10" fill="#999999" letter-spacing="1">MILLION BARRELS PER DAY, 2025</text>
  <line x1="496" y1="146" x2="496" y2="442" stroke="#E0DDD5" stroke-width="1"/>

  <!-- United States 13.6 -->
  <text x="404" y="166" font-size="11" font-weight="bold" fill="#2D5016">United States</text>
  <rect x="496" y="156" width="220" height="13" fill="#2D5016" rx="2"/>
  <text x="710" y="166" text-anchor="end" font-size="10" font-weight="bold" fill="#FFFFFF">13.6</text>
  <!-- Russia 9.9 -->
  <text x="404" y="198" font-size="11" fill="#333333">Russia</text>
  <rect x="496" y="188" width="160" height="13" fill="#999999" rx="2"/>
  <text x="661" y="198" font-size="10" fill="#333333">9.9</text>
  <!-- Saudi Arabia 9.5 -->
  <text x="404" y="230" font-size="11" fill="#333333">Saudi Arabia</text>
  <rect x="496" y="220" width="154" height="13" fill="#999999" rx="2"/>
  <text x="655" y="230" font-size="10" fill="#333333">9.5</text>
  <!-- Canada 4.9 -->
  <text x="404" y="262" font-size="11" fill="#333333">Canada</text>
  <rect x="496" y="252" width="79" height="13" fill="#999999" rx="2"/>
  <text x="580" y="262" font-size="10" fill="#333333">4.9</text>
  <!-- Iraq 4.4 -->
  <text x="404" y="294" font-size="11" fill="#333333">Iraq</text>
  <rect x="496" y="284" width="71" height="13" fill="#999999" rx="2"/>
  <text x="572" y="294" font-size="10" fill="#333333">4.4</text>
  <!-- Iran 4.2 -->
  <text x="404" y="326" font-size="11" fill="#333333">Iran</text>
  <rect x="496" y="316" width="68" height="13" fill="#999999" rx="2"/>
  <text x="569" y="326" font-size="10" fill="#333333">4.2</text>
  <!-- UAE 3.8 -->
  <text x="404" y="358" font-size="11" fill="#333333">UAE</text>
  <rect x="496" y="348" width="61" height="13" fill="#999999" rx="2"/>
  <text x="562" y="358" font-size="10" fill="#333333">3.8</text>
  <!-- Kuwait 2.6 -->
  <text x="404" y="390" font-size="11" fill="#333333">Kuwait</text>
  <rect x="496" y="380" width="42" height="13" fill="#999999" rx="2"/>
  <text x="543" y="390" font-size="10" fill="#333333">2.6</text>
  <!-- Venezuela 0.9 -->
  <text x="404" y="422" font-size="11" font-weight="bold" fill="#2D5016">Venezuela</text>
  <rect x="496" y="412" width="15" height="13" fill="#2D5016" rx="2"/>
  <text x="516" y="422" font-size="10" font-weight="bold" fill="#2D5016">0.9</text>

  <!-- Footnote -->
  <line x1="100" y1="476" x2="660" y2="476" stroke="#E0DDD5" stroke-width="0.8"/>
  <text x="380" y="486" text-anchor="middle" font-size="10" fill="#999999" font-style="italic">Proven reserves and 2025 crude production. US reserves estimates vary widely by source and definition.</text>
</svg>
