<svg xmlns="http://www.w3.org/2000/svg" viewBox="0 0 860 620" font-family="Arial, Helvetica, sans-serif">
  <defs>
    <filter id="shadow" x="-4%" y="-4%" width="108%" height="112%">
      <feDropShadow dx="0" dy="1" stdDeviation="2" flood-opacity="0.06"/>
    </filter>
  </defs>

  <!-- Background -->
  <rect width="860" height="620" fill="#FAF8F3" rx="8"/>

  <!-- Title -->
  <text x="430" y="30" text-anchor="middle" font-size="12" font-weight="bold" fill="#2D5016" letter-spacing="2.5">WHICH STRATEGY FITS YOUR SITUATION?</text>

  <!-- ====== ROW 1: Start node ====== -->
  <rect x="330" y="48" width="200" height="38" rx="19" fill="#2D5016" filter="url(#shadow)"/>
  <text x="430" y="72" text-anchor="middle" font-size="12" font-weight="bold" fill="#FFFFFF">What is your primary goal?</text>

  <!-- Lines from start to row 2 -->
  <line x1="370" y1="86" x2="170" y2="115" stroke="#999999" stroke-width="1.2"/>
  <line x1="430" y1="86" x2="430" y2="115" stroke="#999999" stroke-width="1.2"/>
  <line x1="490" y1="86" x2="690" y2="115" stroke="#999999" stroke-width="1.2"/>

  <!-- Branch labels -->
  <rect x="208" y="88" width="88" height="16" rx="8" fill="#2D5016"/>
  <text x="252" y="100" text-anchor="middle" font-size="9" fill="#FFFFFF" font-weight="bold">Passive income</text>

  <rect x="388" y="95" width="84" height="16" rx="8" fill="#2D5016"/>
  <text x="430" y="107" text-anchor="middle" font-size="9" fill="#FFFFFF" font-weight="bold">Scale quickly</text>

  <rect x="556" y="88" width="68" height="16" rx="8" fill="#2D5016"/>
  <text x="590" y="100" text-anchor="middle" font-size="9" fill="#FFFFFF" font-weight="bold">Quick cash</text>

  <!-- ====== ROW 2: Three question nodes ====== -->
  <rect x="40" y="118" width="260" height="38" rx="6" fill="#FFFFFF" stroke="#E0DDD5" stroke-width="1" filter="url(#shadow)"/>
  <text x="170" y="141" text-anchor="middle" font-size="11" fill="#333333" font-weight="600">Have 20-25% to put down?</text>

  <rect x="320" y="118" width="220" height="38" rx="6" fill="#FFFFFF" stroke="#E0DDD5" stroke-width="1" filter="url(#shadow)"/>
  <text x="430" y="141" text-anchor="middle" font-size="11" fill="#333333" font-weight="600">Comfortable managing rehabs?</text>

  <rect x="560" y="118" width="260" height="38" rx="6" fill="#FFFFFF" stroke="#E0DDD5" stroke-width="1" filter="url(#shadow)"/>
  <text x="690" y="141" text-anchor="middle" font-size="11" fill="#333333" font-weight="600">Strong renovation skills?</text>

  <!-- ====== ROW 2 → ROW 3 connectors ====== -->
  <!-- LEFT YES -->
  <line x1="170" y1="156" x2="170" y2="198" stroke="#2D5016" stroke-width="1.5"/>
  <text x="180" y="182" font-size="9" fill="#2D5016" font-weight="bold">YES</text>
  <!-- LEFT NO -->
  <line x1="90" y1="156" x2="90" y2="175" stroke="#999999" stroke-width="1"/>
  <text x="90" y="190" text-anchor="middle" font-size="8" fill="#999999" font-style="italic">NO → Try BRRRR</text>

  <!-- MIDDLE YES -->
  <line x1="430" y1="156" x2="430" y2="198" stroke="#2D5016" stroke-width="1.5"/>
  <text x="440" y="182" font-size="9" fill="#2D5016" font-weight="bold">YES</text>
  <!-- MIDDLE NO -->
  <line x1="350" y1="156" x2="350" y2="175" stroke="#999999" stroke-width="1"/>
  <text x="350" y="190" text-anchor="middle" font-size="8" fill="#999999" font-style="italic">NO → Try Buy &amp; Hold</text>

  <!-- RIGHT YES -->
  <line x1="690" y1="156" x2="690" y2="198" stroke="#2D5016" stroke-width="1.5"/>
  <text x="700" y="182" font-size="9" fill="#2D5016" font-weight="bold">YES</text>
  <!-- RIGHT NO -->
  <line x1="610" y1="156" x2="610" y2="175" stroke="#999999" stroke-width="1"/>
  <text x="610" y="190" text-anchor="middle" font-size="8" fill="#999999" font-style="italic">NO → Try Buy &amp; Hold</text>

  <!-- ====== ROW 3: Follow-up questions ====== -->
  <rect x="40" y="200" width="260" height="38" rx="6" fill="#FFFFFF" stroke="#E0DDD5" stroke-width="1" filter="url(#shadow)"/>
  <text x="170" y="223" text-anchor="middle" font-size="11" fill="#333333" font-weight="600">Comfortable holding 5+ years?</text>

  <rect x="320" y="200" width="220" height="38" rx="6" fill="#FFFFFF" stroke="#E0DDD5" stroke-width="1" filter="url(#shadow)"/>
  <text x="430" y="223" text-anchor="middle" font-size="11" fill="#333333" font-weight="600">OK with refinance/appraisal risk?</text>

  <rect x="560" y="200" width="260" height="38" rx="6" fill="#FFFFFF" stroke="#E0DDD5" stroke-width="1" filter="url(#shadow)"/>
  <text x="690" y="223" text-anchor="middle" font-size="11" fill="#333333" font-weight="600">Strong buyer demand in market?</text>

  <!-- ====== ROW 3 → OUTCOME connectors ====== -->
  <!-- LEFT YES -->
  <line x1="170" y1="238" x2="170" y2="310" stroke="#2D5016" stroke-width="1.5"/>
  <text x="180" y="268" font-size="9" fill="#2D5016" font-weight="bold">YES</text>
  <!-- LEFT NO -->
  <line x1="90" y1="238" x2="90" y2="257" stroke="#999999" stroke-width="1"/>
  <text x="90" y="272" text-anchor="middle" font-size="8" fill="#999999" font-style="italic">NO → Try Flipping</text>

  <!-- MIDDLE YES -->
  <line x1="430" y1="238" x2="430" y2="310" stroke="#2D5016" stroke-width="1.5"/>
  <text x="440" y="268" font-size="9" fill="#2D5016" font-weight="bold">YES</text>
  <!-- MIDDLE NO -->
  <line x1="350" y1="238" x2="350" y2="257" stroke="#999999" stroke-width="1"/>
  <text x="350" y="272" text-anchor="middle" font-size="8" fill="#999999" font-style="italic">NO → Try Buy &amp; Hold</text>

  <!-- RIGHT YES -->
  <line x1="690" y1="238" x2="690" y2="310" stroke="#2D5016" stroke-width="1.5"/>
  <text x="700" y="268" font-size="9" fill="#2D5016" font-weight="bold">YES</text>
  <!-- RIGHT NO -->
  <line x1="610" y1="238" x2="610" y2="257" stroke="#999999" stroke-width="1"/>
  <text x="610" y="272" text-anchor="middle" font-size="8" fill="#999999" font-style="italic">NO → Try BRRRR</text>

  <!-- ====== OUTCOME CARDS ====== -->

  <!-- BUY & HOLD -->
  <rect x="30" y="312" width="260" height="290" rx="8" fill="#FFFFFF" stroke="#E0DDD5" stroke-width="1" filter="url(#shadow)"/>
  <rect x="30" y="312" width="260" height="36" rx="8" fill="#2D5016"/>
  <rect x="30" y="336" width="260" height="12" fill="#2D5016"/>
  <text x="160" y="336" text-anchor="middle" font-size="14" font-weight="bold" fill="#FFFFFF">Buy &amp; Hold</text>

  <text x="54" y="374" font-size="9" fill="#999999" font-weight="600" letter-spacing="1">BEST FOR</text>
  <text x="54" y="392" font-size="11" fill="#333333">Steady passive income</text>
  <text x="54" y="409" font-size="11" fill="#333333">Long-term wealth building</text>

  <line x1="54" y1="422" x2="266" y2="422" stroke="#E0DDD5" stroke-width="1"/>

  <text x="54" y="440" font-size="9" fill="#999999" font-weight="600" letter-spacing="1">KEY METRIC</text>
  <text x="54" y="458" font-size="11" fill="#333333">Cash-on-Cash Return</text>
  <text x="54" y="475" font-size="11" fill="#2D5016" font-weight="bold">Target: 8-12%</text>

  <line x1="54" y1="488" x2="266" y2="488" stroke="#E0DDD5" stroke-width="1"/>

  <text x="54" y="506" font-size="9" fill="#999999" font-weight="600" letter-spacing="1">YOU NEED</text>
  <text x="54" y="524" font-size="11" fill="#333333">20-25% down payment</text>
  <text x="54" y="541" font-size="11" fill="#333333">Long time horizon (5+ years)</text>

  <line x1="54" y1="554" x2="266" y2="554" stroke="#E0DDD5" stroke-width="1"/>

  <text x="54" y="572" font-size="9" fill="#999999" font-weight="600" letter-spacing="1">RISK</text>
  <rect x="54" y="580" width="50" height="6" rx="3" fill="#2D5016"/>
  <rect x="108" y="580" width="50" height="6" rx="3" fill="#E0DDD5"/>
  <rect x="162" y="580" width="50" height="6" rx="3" fill="#E0DDD5"/>
  <text x="222" y="588" font-size="9" fill="#999999">Low</text>

  <!-- BRRRR -->
  <rect x="300" y="312" width="260" height="290" rx="8" fill="#FFFFFF" stroke="#E0DDD5" stroke-width="1" filter="url(#shadow)"/>
  <rect x="300" y="312" width="260" height="36" rx="8" fill="#2D5016"/>
  <rect x="300" y="336" width="260" height="12" fill="#2D5016"/>
  <text x="430" y="336" text-anchor="middle" font-size="14" font-weight="bold" fill="#FFFFFF">BRRRR</text>

  <text x="324" y="374" font-size="9" fill="#999999" font-weight="600" letter-spacing="1">BEST FOR</text>
  <text x="324" y="392" font-size="11" fill="#333333">Scaling with limited capital</text>
  <text x="324" y="409" font-size="11" fill="#333333">Recycling your investment</text>

  <line x1="324" y1="422" x2="536" y2="422" stroke="#E0DDD5" stroke-width="1"/>

  <text x="324" y="440" font-size="9" fill="#999999" font-weight="600" letter-spacing="1">KEY METRIC</text>
  <text x="324" y="458" font-size="11" fill="#333333">Cash Left in Deal</text>
  <text x="324" y="475" font-size="11" fill="#2D5016" font-weight="bold">Target: as close to $0</text>

  <line x1="324" y1="488" x2="536" y2="488" stroke="#E0DDD5" stroke-width="1"/>

  <text x="324" y="506" font-size="9" fill="#999999" font-weight="600" letter-spacing="1">YOU NEED</text>
  <text x="324" y="524" font-size="11" fill="#333333">Rehab management skills</text>
  <text x="324" y="541" font-size="11" fill="#333333">Accurate ARV estimates</text>

  <line x1="324" y1="554" x2="536" y2="554" stroke="#E0DDD5" stroke-width="1"/>

  <text x="324" y="572" font-size="9" fill="#999999" font-weight="600" letter-spacing="1">RISK</text>
  <rect x="324" y="580" width="50" height="6" rx="3" fill="#2D5016"/>
  <rect x="378" y="580" width="50" height="6" rx="3" fill="#2D5016"/>
  <rect x="432" y="580" width="50" height="6" rx="3" fill="#E0DDD5"/>
  <text x="492" y="588" font-size="9" fill="#999999">Medium</text>

  <!-- FLIP -->
  <rect x="570" y="312" width="260" height="290" rx="8" fill="#FFFFFF" stroke="#E0DDD5" stroke-width="1" filter="url(#shadow)"/>
  <rect x="570" y="312" width="260" height="36" rx="8" fill="#2D5016"/>
  <rect x="570" y="336" width="260" height="12" fill="#2D5016"/>
  <text x="700" y="336" text-anchor="middle" font-size="14" font-weight="bold" fill="#FFFFFF">Flip</text>

  <text x="594" y="374" font-size="9" fill="#999999" font-weight="600" letter-spacing="1">BEST FOR</text>
  <text x="594" y="392" font-size="11" fill="#333333">Quick cash generation</text>
  <text x="594" y="409" font-size="11" fill="#333333">No landlord responsibilities</text>

  <line x1="594" y1="422" x2="806" y2="422" stroke="#E0DDD5" stroke-width="1"/>

  <text x="594" y="440" font-size="9" fill="#999999" font-weight="600" letter-spacing="1">KEY METRIC</text>
  <text x="594" y="458" font-size="11" fill="#333333">Flip Profit / ROI</text>
  <text x="594" y="475" font-size="11" fill="#2D5016" font-weight="bold">Target: 20-50%+ annualized</text>

  <line x1="594" y1="488" x2="806" y2="488" stroke="#E0DDD5" stroke-width="1"/>

  <text x="594" y="506" font-size="9" fill="#999999" font-weight="600" letter-spacing="1">YOU NEED</text>
  <text x="594" y="524" font-size="11" fill="#333333">Renovation expertise</text>
  <text x="594" y="541" font-size="11" fill="#333333">Strong buyer market</text>

  <line x1="594" y1="554" x2="806" y2="554" stroke="#E0DDD5" stroke-width="1"/>

  <text x="594" y="572" font-size="9" fill="#999999" font-weight="600" letter-spacing="1">RISK</text>
  <rect x="594" y="580" width="50" height="6" rx="3" fill="#2D5016"/>
  <rect x="648" y="580" width="50" height="6" rx="3" fill="#2D5016"/>
  <rect x="702" y="580" width="50" height="6" rx="3" fill="#2D5016"/>
  <text x="762" y="588" font-size="9" fill="#999999">High</text>

</svg>